PathFileType	4	(X/Y/Z)	AB09\squats_1.trc
DataRate	CameraRate	NumFrames	NumMarkers	Units	OrigDataRate	OrigDataStartFrame	OrigNumFrames
200.000000	200.000000	4	35	mm	200.000000	166	332
Frame#	Time	C7			LSHO			STRN			LASI			RASI			LPSI			RPSI			LGTR			RGTR			LTHC			LTHL			LTHR			LKNE			LMKNE			LSHC			LSHL			LSHR			LANK			LMANK			LMT1			LMT5			LCAL			RTHC			RTHL			RTHR			RKNE			RMKNE			RSHC			RSHL			RSHR			RANK			RMANK			RMT1			RMT5			RCAL			
		X1	Y1	Z1	X2	Y2	Z2	X3	Y3	Z3	X4	Y4	Z4	X5	Y5	Z5	X6	Y6	Z6	X7	Y7	Z7	X8	Y8	Z8	X9	Y9	Z9	X10	Y10	Z10	X11	Y11	Z11	X12	Y12	Z12	X13	Y13	Z13	X14	Y14	Z14	X15	Y15	Z15	X16	Y16	Z16	X17	Y17	Z17	X18	Y18	Z18	X19	Y19	Z19	X20	Y20	Z20	X21	Y21	Z21	X22	Y22	Z22	X23	Y23	Z23	X24	Y24	Z24	X25	Y25	Z25	X26	Y26	Z26	X27	Y27	Z27	X28	Y28	Z28	X29	Y29	Z29	X30	Y30	Z30	X31	Y31	Z31	X32	Y32	Z32	X33	Y33	Z33	X34	Y34	Z34	X35	Y35	Z35	

167	20.995	-3547.279986856675	895.9320056085802	2509.285121718583	-3613.419211886956	842.1190507627515	2665.600861855623	-3580.656365512669	591.4973931558405	2518.773080392854	-3301.861273278035	510.0731141939185	2654.344659661138	-3341.672583328348	502.4721873103428	2369.613892641029	-3121.954302191571	490.4974083934027	2552.232237213978	-3135.743569188732	489.5349883827177	2419.207105906641	-3212.147935522532	446.0785419593287	2719.616072759657	-3252.819746814763	457.9530960379264	2279.965201154088	-3427.271081082952	488.0326226869846	2749.622080115783	-3498.07570483224	538.1930998964797	2654.25518020781	-3502.918578854764	356.49169306921	2691.992720604489	-3618.360580317561	462.0124813066563	2782.35832102304	-3649.454381525229	444.4217094667709	2639.540392556092	-3515.509946299404	388.1774200995378	2764.670541079788	-3647.840311432151	319.6853297887821	2718.775013847991	-3559.821643507432	263.2301191894297	2769.25987325368	-3442.567089930309	105.0939686261349	2735.052444689295	-3487.717560222065	113.2631334259433	2643.307229487486	-3587.993436604163	77.98545049133755	2686.930343203136	-3534.178067394801	56.23835981204539	2785.430083557545	-3362.934018493981	70.54270080591738	2667.074617032214	-3500.568556396888	347.7735025217711	2297.970120449489	-3467.183400696357	468.6800417459141	2241.043438537833	-3490.997246526394	538.013838209045	2328.501811807125	-3616.18663430312	440.4868969911846	2224.095267770425	-3645.284148866832	439.9533778564794	2383.202783066602	-3553.327803555501	271.4828499344286	2230.41467391619	-3524.171798300474	371.0600877886903	2252.829648768668	-3651.023898403058	315.6860869242128	2320.166480098829	-3444.058299731719	106.15815266522	2284.951101299513	-3489.26220050354	110.6411893688884	2381.013464329927	-3603.826537457821	64.96655517076212	2323.723913583598	-3549.23725028907	66.36329452972298	2219.880769714997	-3380.259978288783	68.48565655912671	2363.446101980301	
168	21	-3547.202915778856	895.1546675228357	2509.443268441511	-3613.270920931192	841.4068292746688	2665.687937351297	-3580.494425539751	590.7114562317713	2518.885252106544	-3301.625161735888	509.5020869770365	2654.369975557589	-3341.504261274145	501.8250609122514	2369.670418921145	-3121.762229316259	489.7015190348072	2552.205159070952	-3135.590342437648	488.6935824452908	2419.191702626241	-3211.991027311699	445.4607158201079	2719.625454033207	-3252.647288661151	457.2049799260535	2280.01777217105	-3427.010250926345	487.7507006791588	2749.594011919385	-3497.722508881415	537.9831130484866	2654.199615267169	-3502.794326837065	356.337130739071	2692.174088992162	-3618.110021449936	462.0698052069021	2782.347891975087	-3649.254026462067	444.4499132630269	2639.514838388799	-3515.223257717693	388.2213190893241	2764.714903803329	-3647.707960470914	319.7528343940676	2718.775040949557	-3559.695066620612	263.2418412924733	2769.223219539483	-3442.536378183383	105.0770686610591	2735.020526250384	-3487.692736915731	113.2516393385195	2643.288589576038	-3587.973799553072	78.00886636884475	2686.92962676876	-3534.167351036945	56.26549027291671	2785.422441614566	-3362.921060629292	70.50840510593208	2667.062042018245	-3500.359998604436	347.7399120220999	2297.684601983029	-3466.866334319996	468.357446653351	2240.992380328148	-3490.582420075009	537.7352940497633	2328.452115602484	-3615.924529713072	440.4851445095744	2223.982245304926	-3645.034228561779	439.9848974170894	2383.062651270662	-3553.181022493336	271.4592469131825	2230.40321211921	-3523.854594956763	371.0568824056684	2252.692346860075	-3650.897331783015	315.7457933538762	2320.12023946864	-3444.012275330568	106.1508592998958	2285.029953856706	-3489.211300953086	110.6310997009298	2381.065883255007	-3603.786963714396	64.97753463980035	2323.755174483556	-3549.204409300969	66.4220318277219	2219.926071851563	-3380.245300011195	68.44846437595706	2363.499430751086	
169	21.005	-3547.123419957063	894.4925337514061	2509.596213573995	-3613.120874163814	840.8116351978292	2665.777320597495	-3580.344133117051	590.0423346705335	2518.996387057976	-3301.40002194506	509.0189009904477	2654.391739656528	-3341.344070514068	501.257028309907	2369.723560505015	-3121.577188831953	489.0391097942561	2552.175968729973	-3135.442750033377	487.9828267842424	2419.172955486472	-3211.826681538064	444.9537718886395	2719.638897009416	-3252.478572183875	456.5607003554792	2280.071618822962	-3426.762609822414	487.5222232125934	2749.555661155959	-3497.387981412655	537.8086276626815	2654.126932434474	-3502.649922907503	356.2267080498959	2692.37984121449	-3617.86680372712	462.135093816373	2782.313934082159	-3649.045472297007	444.4749432217774	2639.467088084982	-3514.94032708313	388.2770043461297	2764.746059699632	-3647.574306671976	319.8213282742744	2718.759887810112	-3559.570519430042	263.2568996726219	2769.175505325482	-3442.504956727812	105.061715372987	2734.986870699686	-3487.666673427285	113.2386092488558	2643.268299837997	-3587.953635106944	78.03117948899124	2686.927509772753	-3534.155814299185	56.29402821010414	2785.416063385137	-3362.907493804392	70.4726169573332	2667.050157336164	-3500.146120450821	347.7413011415533	2297.403803851568	-3466.567467028592	468.0753642989128	2240.957105478628	-3490.192314942757	537.4989193196967	2328.413578307083	-3615.673723094319	440.4917703562776	2223.898414608655	-3644.779420830122	440.0153444670665	2382.946077714159	-3553.039020539525	271.4415522117271	2230.408700560385	-3523.547716393797	371.0667085125837	2252.581592586044	-3650.773848287446	315.804746054434	2320.094265111776	-3443.966992278733	106.1457035143724	2285.11039789776	-3489.161241730094	110.6195407240995	2381.122948803338	-3603.749407225833	64.98735867764846	2323.788100343231	-3549.172557245333	66.48320936908094	2219.973846285349	-3380.23137738166	68.41190378593257	2363.550837596805	
170	21.01	-3547.041708105654	893.9471477594874	2509.742924326712	-3612.968443157868	840.3348079406793	2665.868306542307	-3580.205161694061	589.4920016652844	2519.106549791643	-3301.185755620426	508.6252968747183	2654.409740616819	-3341.191437242016	500.7719210427038	2369.77304363098	-3121.399261561636	488.511956609301	2552.14508327114	-3135.300137189964	487.4054138747635	2419.150904900457	-3211.654504198082	444.5589616874678	2719.656282774144	-3252.31357624954	456.0233799129135	2280.126011278488	-3426.52821266443	487.3474797328907	2749.507834524596	-3497.072531908014	537.6706243385682	2654.038525310909	-3502.485955159093	356.1605680476372	2692.605923482157	-3617.631485894322	462.2078456557755	2782.257612554381	-3648.82975952261	444.4971005305992	2639.398277133739	-3514.662273015548	388.3435814462738	2764.765005789108	-3647.439819185018	319.8906541756437	2718.730061864336	-3559.448673432318	263.2750472510423	2769.117392714655	-3442.472662878584	105.047815888482	2734.95168372813	-3487.639543740965	113.2241101717287	2643.246404301275	-3587.932981438521	78.05241097388462	2686.924328561253	-3534.143073390993	56.32378920082829	2785.411088381609	-3362.893421836091	70.43552488337677	2667.038873295979	-3499.929430456667	347.7746561874602	2297.133000615019	-3466.288497461934	467.8354493822744	2240.937990554857	-3489.828573125588	537.3064941475843	2328.386333569993	-3615.435386265328	440.5070283761643	2223.844335661505	-3644.522821481082	440.0455024632579	2382.855643749499	-3552.902547309752	271.43000043314	2230.431235160283	-3523.252515226202	371.0899261105412	2252.497500397028	-3650.653780117761	315.8628896611708	2320.088835104856	-3443.922736572749	106.142728296088	2285.192151516803	-3489.112513778922	110.6064896659394	2381.184596454389	-3603.714126386191	64.99632235732668	2323.822682575273	-3549.14194523127	66.54659153333257	2220.023905266959	-3380.218392555815	68.37590711292002	2363.600180559749	
